<svg width="448" height="108" viewBox="0 0 448 108" fill="none" xmlns="http://www.w3.org/2000/svg">
<path d="M41.1187 107.337C54.6547 107.337 67.3267 100.713 74.9587 89.6248L57.1027 77.3848C53.5027 82.5688 47.5987 85.7368 41.1187 85.7368C30.4627 85.7368 21.6787 77.0968 21.6787 66.2968C21.6787 55.6408 30.4627 46.8568 41.1187 46.8568C47.4547 46.8568 53.3587 50.0248 57.1027 55.2088L74.6707 42.6808C70.9267 37.4968 66.0307 33.0328 60.2707 30.0088C54.5107 26.9848 47.7427 25.2568 41.1187 25.2568C35.6467 25.2568 30.1747 26.4088 25.1347 28.5688C20.2387 30.5848 15.9187 33.6088 12.0307 37.3528C8.2867 41.0968 5.4067 45.5608 3.2467 50.3128C1.2307 55.4968 0.0786743 60.8248 0.0786743 66.2968C0.0786743 71.9128 1.2307 77.2408 3.2467 82.2808C5.4067 87.1768 8.2867 91.6408 12.0307 95.3848C15.9187 99.1288 20.2387 102.153 25.1347 104.169C30.1747 106.329 35.6467 107.337 41.1187 107.337Z" fill="black" style="fill:black;fill:black;fill-opacity:1;"/>
<path d="M155.956 25.2568H134.356V29.7208C128.74 26.8408 122.404 25.2568 115.924 25.2568C110.308 25.2568 104.98 26.4088 99.9404 28.5688C95.0444 30.5848 90.5804 33.6088 86.8364 37.3528C83.0924 41.0968 80.0684 45.4168 78.0524 50.3128C75.8924 55.4968 74.8845 60.8248 74.8845 66.2968C74.8845 71.9128 75.8924 77.2408 78.0524 82.2808C80.0684 87.1768 83.0924 91.6408 86.8364 95.3848C90.5804 99.1288 95.0444 102.153 99.9404 104.169C104.98 106.329 110.308 107.337 115.924 107.337C122.26 107.337 128.74 105.897 134.356 103.017V106.329H155.956V25.2568ZM125.716 83.1448C122.692 84.8728 119.38 85.7368 115.924 85.7368C105.124 85.7368 96.4844 77.0968 96.4844 66.2968C96.4844 55.6408 105.124 46.8568 115.924 46.8568C119.668 46.8568 123.268 48.0088 126.436 50.0248C129.46 52.0408 131.908 54.7768 133.492 58.0888C134.644 60.6808 135.22 63.4168 135.22 66.4408C135.22 69.7528 134.356 73.2088 132.628 76.0888C131.044 78.9688 128.596 81.4168 125.716 83.1448Z" fill="black" style="fill:black;fill:black;fill-opacity:1;"/>
<path d="M162.655 107.193H196.351C210.895 107.193 222.703 95.3848 222.703 80.8408C222.703 66.2968 210.895 54.3448 196.351 54.3448H190.303C188.287 54.3448 186.559 52.7608 186.559 50.6008C186.559 48.5848 188.287 46.8568 190.303 46.8568H220.399V24.2488H190.303C175.759 24.2488 163.951 36.0568 163.951 50.6008C163.951 65.1448 175.759 76.9528 190.303 76.9528H196.351C198.367 76.9528 200.095 78.6808 200.095 80.8408C200.095 82.8568 198.511 84.5848 196.351 84.5848H162.655V107.193Z" fill="black" style="fill:black;fill:black;fill-opacity:1;"/>
<path d="M252.583 63.2728V46.2808H275.479V26.1208H252.583V0.344788L230.983 7.54478V63.2728C230.983 69.3208 232.135 75.2248 234.439 80.6968C236.743 86.0248 239.911 90.7768 244.087 94.8088C248.119 98.8408 252.871 102.153 258.199 104.313C263.671 106.617 269.431 107.769 275.479 107.769V86.1688C262.807 86.1688 252.583 75.9448 252.583 63.2728Z" fill="black" style="fill:black;fill:black;fill-opacity:1;"/>
<path d="M314.919 107.193C320.391 107.193 325.719 106.185 330.903 104.025C335.799 102.009 340.119 98.9848 343.863 95.2408C347.607 91.4968 350.631 87.0328 352.647 82.1368C354.807 77.0968 355.959 71.7688 355.959 66.1528C355.959 60.6808 354.807 55.3528 352.647 50.1688C350.631 45.2728 347.607 40.9528 343.863 37.2088C340.119 33.4648 335.655 30.4408 330.903 28.4248C325.719 26.2648 320.391 25.1128 314.919 25.1128C309.303 25.1128 303.975 26.2648 298.935 28.4248C294.039 30.4408 289.575 33.4648 285.831 37.2088C282.087 40.9528 279.063 45.4168 277.047 50.1688C274.887 55.3528 273.879 60.6808 273.879 66.1528C273.879 71.7688 274.887 77.0968 277.047 82.1368C279.063 87.0328 282.087 91.4968 285.831 95.2408C289.575 98.9848 294.039 102.009 298.935 104.025C303.975 106.185 309.303 107.193 314.919 107.193ZM314.919 46.7128C325.575 46.7128 334.359 55.4968 334.359 66.1528C334.359 76.9528 325.575 85.5928 314.919 85.5928C304.119 85.5928 295.479 76.9528 295.479 66.1528C295.479 55.4968 304.119 46.7128 314.919 46.7128Z" fill="black" style="fill:black;fill:black;fill-opacity:1;"/>
<path fill-rule="evenodd" clip-rule="evenodd" d="M439.8 25H374.2C369.669 25 366 28.6695 366 33.2V53.7C366 55.9632 367.837 57.8 370.1 57.8C372.363 57.8 374.2 55.9632 374.2 53.7V37.3C374.2 35.0368 376.037 33.2 378.3 33.2H435.7C437.963 33.2 439.8 35.0368 439.8 37.3V94.7C439.8 96.9632 437.963 98.8 435.7 98.8H419.3C417.037 98.8 415.2 100.637 415.2 102.9C415.2 105.163 417.037 107 419.3 107H439.8C444.33 107 448 103.33 448 98.8V33.2C448 28.6695 444.33 25 439.8 25ZM366 98.8V107H374.2C374.2 102.469 370.53 98.8 366 98.8ZM366 82.4V90.6C375.045 90.6 382.4 97.9554 382.4 107H390.6C390.6 93.4126 379.587 82.4 366 82.4ZM407 107H398.8C398.8 88.9149 384.085 74.2 366 74.2V66C388.644 66 407 84.3557 407 107Z" fill="black" style="fill:black;fill:black;fill-opacity:1;"/>
</svg>
